<svg width="28" height="32" viewBox="0 0 28 32" fill="none" xmlns="http://www.w3.org/2000/svg">
<path d="M6.546 7.39132C5.90955 7.38449 5.42635 6.88757 5.41462 6.20327C5.40689 5.73306 5.40858 5.26248 5.41026 4.79205C5.41097 4.59311 5.41169 4.39397 5.41169 4.19512C5.41169 3.99075 5.41093 3.7863 5.41018 3.58183C5.40847 3.1169 5.40676 2.65167 5.41389 2.18697C5.42488 1.47687 5.90735 0.98451 6.56653 0.988303C7.22938 0.992096 7.72212 1.48067 7.72798 2.18621C7.74118 3.52523 7.74191 4.86425 7.72725 6.20327C7.71992 6.88757 7.18979 7.39815 6.546 7.39132Z" fill="black"/>
<path d="M13.2233 24.0487V18.8487L12.0166 18.982V17.562C12.2655 17.5264 12.4744 17.4864 12.6433 17.442C12.8122 17.3976 12.99 17.3287 13.1766 17.2353C13.3633 17.142 13.5233 17.0131 13.6566 16.8487C13.79 16.6842 13.8988 16.482 13.9833 16.242H15.4566V24.0487H13.2233Z" fill="black"/>
<path fill-rule="evenodd" clip-rule="evenodd" d="M23.8335 4.30361C25.9973 4.98488 27.5642 7.13034 27.5686 9.47685C27.5782 15.166 27.5818 20.8543 27.5672 26.5435C27.5591 29.5128 25.1651 31.9754 22.2959 31.9807C19.5566 31.986 16.8165 31.9883 14.0771 31.9883C11.3377 31.9883 8.59759 31.986 5.85822 31.9807C2.98906 31.9754 0.59504 29.5128 0.586974 26.5435C0.572309 20.8543 0.575976 15.166 0.585508 9.47685C0.589907 7.13034 2.15684 4.98488 4.32062 4.30361C4.72243 4.17767 4.76936 4.20878 4.77303 4.63741C4.77455 4.85224 4.77392 5.06719 4.7733 5.28217C4.77242 5.58571 4.77154 5.88933 4.77669 6.19265C4.79576 7.24262 5.58619 8.05362 6.57166 8.04528C7.56446 8.03693 8.34536 7.22745 8.36149 6.17975C8.37102 5.58573 8.37102 4.99095 8.36149 4.39692C8.35709 4.12912 8.43408 4.02063 8.71784 4.02139C10.5047 4.0267 12.2909 4.02822 14.0771 4.02746C15.8632 4.02822 17.6494 4.0267 19.4363 4.02139C19.7201 4.02063 19.7971 4.12912 19.7927 4.39692C19.7831 4.99095 19.7831 5.58573 19.7927 6.17975C19.8088 7.22745 20.5897 8.03693 21.5825 8.04528C22.568 8.05362 23.3584 7.24262 23.3775 6.19265C23.3825 5.89834 23.3815 5.60378 23.3806 5.30925C23.3799 5.08535 23.3792 4.86116 23.3811 4.63741C23.3848 4.20878 23.4317 4.17767 23.8335 4.30361ZM22.2747 29.1365C23.6656 29.1343 24.8175 27.9363 24.8205 26.4904C24.8246 24.3126 24.8249 22.1348 24.8251 19.957C24.8254 17.507 24.8256 15.057 24.8315 12.607C24.8322 12.2421 24.6995 12.1632 24.3791 12.1648C21.6684 12.1713 18.9577 12.1708 16.2467 12.1703H11.9076C9.19659 12.1708 6.48576 12.1713 3.77509 12.1648C3.45467 12.1632 3.32195 12.2421 3.32268 12.607C3.32851 15.057 3.32878 17.507 3.32905 19.957C3.3293 22.1348 3.32954 24.3126 3.33368 26.4904C3.33661 27.9363 4.48853 29.1343 5.87948 29.1365C8.61152 29.1411 11.345 29.1426 14.0771 29.1426C16.8091 29.1426 19.5426 29.1411 22.2747 29.1365Z" fill="black"/>
<path d="M22.7396 6.20403C22.7286 6.88757 22.2453 7.38525 21.6082 7.39208C20.9644 7.39966 20.4343 6.88833 20.4269 6.20403C20.413 4.86501 20.413 3.52599 20.4262 2.18697C20.4328 1.48067 20.9255 0.992096 21.5884 0.988303C22.2475 0.98451 22.73 1.47687 22.7403 2.18773C22.7474 2.65243 22.7457 3.11749 22.744 3.58241C22.7432 3.78694 22.7425 3.99145 22.7425 4.19588C22.7422 4.4133 22.743 4.63081 22.7438 4.84834C22.7454 5.30027 22.747 5.75232 22.7396 6.20403Z" fill="black"/>
</svg>
