<svg width="41" height="31" viewBox="0 0 41 31" fill="none" xmlns="http://www.w3.org/2000/svg">
<path d="M28.9825 6.16455C28.9825 6.49005 29.1779 6.65283 29.5685 6.65283H33.5919V10.6763C33.5919 11.0669 33.7547 11.2622 34.0802 11.2622H34.92C35.2456 11.2622 35.4083 11.0669 35.4083 10.6763V6.65283H39.4318C39.8224 6.65283 40.0177 6.49005 40.0177 6.16455V5.32471C40.0177 4.99921 39.8224 4.83643 39.4318 4.83643H35.4083V0.812988C35.4083 0.422363 35.2456 0.227051 34.92 0.227051H34.0802C33.7547 0.227051 33.5919 0.422363 33.5919 0.812988V4.83643H29.5685C29.1779 4.83643 28.9825 4.99921 28.9825 5.32471V6.16455Z" fill="black"/>
<path d="M16.7707 30.6629C14.686 30.6305 13.0418 30.5595 11.4212 30.2677C10.5779 30.1157 9.75685 29.8603 9.00246 29.4144C7.83113 28.7226 7.77118 27.1694 8.30599 26.2702C8.91421 25.2467 9.88886 24.6482 10.8851 24.0854C11.6745 23.6395 12.5097 23.2916 13.351 22.9572C13.7753 22.7883 13.9686 22.4126 14.0549 22.0255C14.1795 21.4688 14.2226 20.8973 13.7874 20.4034C12.9226 19.4211 12.342 18.276 12.0005 17.0181C11.6071 15.5696 11.6145 14.1265 12.3056 12.7605C12.7966 11.789 13.5672 11.1046 14.5977 10.7054C15.6074 10.3142 16.6366 10.2473 17.6544 10.55C19.2056 11.0114 20.2658 12.0268 20.7036 13.6178C21.132 15.1751 20.9205 16.6958 20.2914 18.1497C19.9418 18.9584 19.5053 19.7326 18.9106 20.4048C18.2794 21.1175 18.4734 21.985 18.9429 22.6667C19.151 22.9686 19.506 23.0315 19.8084 23.1524C20.8599 23.5746 21.8763 24.0644 22.8092 24.7076C23.4726 25.165 24.1307 25.6622 24.4533 26.4385C25.0171 27.7957 24.6123 29.0016 23.3709 29.5881C22.0662 30.2042 20.6733 30.4332 19.246 30.5109C18.2747 30.5636 17.3075 30.6994 16.7713 30.6636L16.7707 30.6629Z" fill="black"/>
<path d="M8.72227 7.53974C10.1071 7.59176 11.3606 8.23424 12.1137 9.71851C12.2201 9.92794 12.2504 10.0881 12.0402 10.2772C11.2596 10.9805 10.6844 11.848 10.3685 12.8391C10.0229 13.922 9.90639 15.0469 10.0559 16.1954C10.3011 18.0715 11.0636 19.7159 12.1999 21.2008C12.3669 21.419 12.3716 21.494 12.086 21.6082C10.5005 22.2419 8.99035 23.0168 7.73078 24.1997C7.28084 24.6227 6.91106 25.1199 6.66319 25.6921C6.57293 25.8995 6.46583 25.9738 6.2321 25.9569C5.12611 25.8779 4.02416 25.7759 2.95993 25.4462C2.3746 25.2651 1.8115 25.0429 1.31307 24.647C0.432718 23.9471 0.561373 22.3419 1.12312 21.6379C1.85933 20.7151 2.83801 20.1523 3.84769 19.6132C4.52192 19.2531 5.2487 19.0281 5.94786 18.7322C6.352 18.5613 6.44764 18.285 6.4436 17.8411C6.43821 17.2871 6.08459 16.9378 5.79496 16.5514C4.83244 15.2658 4.37778 13.7808 4.3441 12.2175C4.30638 10.4644 4.86342 8.91524 6.52443 7.99914C7.13535 7.66202 7.80353 7.54041 8.72227 7.53906V7.53974Z" fill="black"/>
<path d="M28.3264 12.1186C28.2664 13.9393 27.7269 15.5918 26.5434 17.0024C26.2194 17.3882 26.2053 17.8246 26.2713 18.2732C26.3003 18.4705 26.4538 18.6232 26.66 18.7036C27.5443 19.0481 28.4361 19.3738 29.2687 19.8419C30.1611 20.3446 31.0233 20.881 31.6228 21.7457C32.3192 22.7503 32.2074 24.3427 30.832 25.0129C29.8244 25.504 28.748 25.7418 27.6386 25.8479C27.2486 25.8851 26.858 25.9128 26.4693 25.9607C26.2626 25.9864 26.1258 25.9303 26.0383 25.7351C25.5897 24.7305 24.8225 24.0042 23.9502 23.38C22.9163 22.6402 21.7867 22.0741 20.608 21.6106C20.3359 21.5039 20.3049 21.4032 20.4834 21.1891C21.2896 20.2203 21.8487 19.1096 22.2441 17.9239C22.8132 16.2181 22.8725 14.4825 22.2858 12.7706C21.9592 11.818 21.4163 10.9748 20.6504 10.3013C20.4436 10.1189 20.4382 9.97362 20.5602 9.72568C21.0094 8.81431 21.6992 8.17115 22.6374 7.8212C24.6595 7.06792 27.1335 7.81782 27.9478 10.0479C28.0051 10.2053 28.0832 10.358 28.1209 10.5195C28.2435 11.0431 28.3957 11.5646 28.327 12.1193L28.3264 12.1186Z" fill="black"/>
</svg>
