<svg width="32" height="24" viewBox="0 0 32 24" fill="none" xmlns="http://www.w3.org/2000/svg">
<path d="M16.4939 23.6629C14.4092 23.6305 12.765 23.5595 11.1444 23.2677C10.3011 23.1157 9.48005 22.8603 8.72566 22.4144C7.55434 21.7226 7.49438 20.1694 8.02919 19.2702C8.63742 18.2467 9.61207 17.6482 10.6083 17.0854C11.3977 16.6395 12.2329 16.2916 13.0742 15.9572C13.4985 15.7883 13.6918 15.4126 13.7781 15.0255C13.9027 14.4688 13.9458 13.8973 13.5107 13.4034C12.6458 12.4211 12.0652 11.276 11.7237 10.0181C11.3303 8.5696 11.3377 7.12655 12.0288 5.76051C12.5198 4.78901 13.2904 4.10464 14.321 3.70537C15.3306 3.31421 16.3598 3.24732 17.3776 3.54999C18.9288 4.01141 19.989 5.02682 20.4268 6.61783C20.8552 8.17506 20.6437 9.69581 20.0146 11.1497C19.665 11.9584 19.2285 12.7326 18.6338 13.4048C18.0027 14.1175 18.1966 14.985 18.6661 15.6667C18.8742 15.9686 19.2292 16.0315 19.5316 16.1524C20.5831 16.5746 21.5995 17.0644 22.5324 17.7076C23.1958 18.165 23.8539 18.6622 24.1765 19.4385C24.7403 20.7957 24.3355 22.0016 23.0941 22.5881C21.7894 23.2042 20.3965 23.4332 18.9692 23.5109C17.9979 23.5636 17.0307 23.6994 16.4945 23.6636L16.4939 23.6629Z" fill="black"/>
<path d="M8.44544 0.539738C9.83029 0.591759 11.0838 1.23424 11.8368 2.71851C11.9433 2.92794 11.9736 3.08806 11.7634 3.27722C10.9828 3.98051 10.4075 4.84796 10.0916 5.83905C9.74609 6.92202 9.62957 8.04687 9.7791 9.19537C10.0243 11.0715 10.7867 12.7159 11.923 14.2008C12.0901 14.419 12.0948 14.494 11.8092 14.6082C10.2236 15.2419 8.71352 16.0168 7.45396 17.1997C7.00402 17.6227 6.63423 18.1199 6.38636 18.6921C6.2961 18.8995 6.189 18.9738 5.95528 18.9569C4.84929 18.8779 3.74733 18.7759 2.6831 18.4462C2.09777 18.2651 1.53468 18.0429 1.03624 17.647C0.155893 16.9471 0.284548 15.3419 0.8463 14.6379C1.5825 13.7151 2.56119 13.1523 3.57086 12.6132C4.2451 12.2531 4.97188 12.0281 5.67104 11.7322C6.07517 11.5613 6.17082 11.285 6.16678 10.8411C6.16139 10.2871 5.80777 9.93784 5.51814 9.55141C4.55561 8.26576 4.10096 6.78082 4.06728 5.21751C4.02956 3.46436 4.58659 1.91524 6.2476 0.999138C6.85852 0.662019 7.5267 0.540414 8.44544 0.539062V0.539738Z" fill="black"/>
<path d="M28.0495 5.11861C27.9896 6.93932 27.4501 8.59181 26.2666 10.0024C25.9426 10.3882 25.9285 10.8246 25.9945 11.2732C26.0235 11.4705 26.177 11.6232 26.3831 11.7036C27.2675 12.0481 28.1593 12.3738 28.9918 12.8419C29.8843 13.3446 30.7465 13.881 31.3459 14.7457C32.0424 15.7503 31.9306 17.3427 30.5552 18.0129C29.5475 18.504 28.4712 18.7418 27.3618 18.8479C26.9718 18.8851 26.5812 18.9128 26.1925 18.9607C25.9857 18.9864 25.849 18.9303 25.7614 18.7351C25.3128 17.7305 24.5456 17.0042 23.6734 16.38C22.6395 15.6402 21.5099 15.0741 20.3312 14.6106C20.059 14.5039 20.0281 14.4032 20.2066 14.1891C21.0128 13.2203 21.5719 12.1096 21.9672 10.9239C22.5364 9.21808 22.5957 7.48249 22.009 5.77055C21.6823 4.81797 21.1394 3.97484 20.3736 3.30128C20.1668 3.11887 20.1614 2.97362 20.2833 2.72568C20.7326 1.81431 21.4223 1.17115 22.3606 0.821197C24.3826 0.0679165 26.8566 0.817819 27.671 3.04793C27.7282 3.20535 27.8064 3.35803 27.8441 3.5195C27.9667 4.04308 28.1189 4.56463 28.0502 5.11929L28.0495 5.11861Z" fill="black"/>
</svg>
