<svg width="32" height="27" viewBox="0 0 32 27" fill="none" xmlns="http://www.w3.org/2000/svg">
<path d="M16.325 26.7379C15.6325 26.734 14.7322 26.7223 13.8346 26.668C12.098 26.5618 10.3641 26.4324 8.67727 25.9676C7.43596 25.6246 6.22601 25.1883 5.10884 24.5514C3.07048 23.389 1.82787 21.6311 1.283 19.376C1.06871 18.4919 0.938046 17.5961 0.887087 16.6874C0.854421 16.1139 0.815222 15.5404 0.829595 14.9657C0.87402 13.2168 1.20068 11.5314 1.99381 9.95339C2.34138 9.26342 2.78302 8.633 3.26386 8.02847C3.33181 7.94303 3.35402 7.86925 3.32005 7.76569C2.94243 6.60064 2.8183 5.40323 2.88232 4.18769C2.94374 3.02653 3.24296 1.92232 3.75385 0.873779C3.79958 0.780575 3.861 0.736562 3.96814 0.737857C5.27217 0.75598 6.51478 1.01229 7.67769 1.61941C8.69425 2.15015 9.63111 2.7974 10.5301 3.50161C10.7731 3.6919 10.99 3.7385 11.2984 3.66213C12.213 3.433 13.1486 3.31132 14.0867 3.21812C14.9936 3.1275 15.903 3.09384 16.8137 3.09902C18.4379 3.10808 20.0476 3.2686 21.63 3.64401C21.7855 3.68155 21.8939 3.65048 22.0154 3.55727C23.0385 2.7741 24.0995 2.04918 25.265 1.48608C26.1536 1.0563 27.0983 0.836238 28.0808 0.768925C28.2808 0.754685 28.4807 0.749507 28.6819 0.737857C28.7995 0.731384 28.874 0.781869 28.9236 0.888018C29.4032 1.91067 29.6998 2.97863 29.7756 4.10873C29.8579 5.3398 29.7207 6.54109 29.3378 7.71391C29.2999 7.82912 29.3156 7.91456 29.3953 8.00776C30.553 9.38252 31.2782 10.9592 31.6062 12.7158C31.7381 13.4239 31.8191 14.1372 31.8244 14.8595C31.8309 15.7243 31.8204 16.5877 31.7238 17.4485C31.5722 18.8013 31.286 20.1165 30.6784 21.3502C30.2185 22.2835 29.5521 23.0485 28.7681 23.7281C27.3805 24.9307 25.7459 25.6181 23.9728 26.0246C22.8478 26.2822 21.7084 26.4608 20.5598 26.5773C19.6478 26.6692 18.7332 26.6977 17.8172 26.7107C17.3899 26.7158 16.9614 26.7327 16.325 26.7353V26.7379ZM16.6752 24.9463C17.8655 24.9553 19.3734 24.9696 20.8721 24.7858C22.0938 24.6356 23.2816 24.3521 24.404 23.8395C25.5316 23.3243 26.4201 22.5514 26.9702 21.4278C27.4811 20.3858 27.6693 19.2841 27.6157 18.1307C27.5739 17.2414 27.374 16.4 26.9584 15.6116C26.1131 14.0052 24.7724 13.1948 22.9471 13.1676C22.3604 13.1586 21.7802 13.2466 21.1988 13.3048C19.934 13.433 18.6822 13.6712 17.4069 13.723C16.2571 13.7696 15.1098 13.7553 13.9665 13.6298C13.4556 13.5728 12.9474 13.49 12.4378 13.4252C11.7021 13.3307 10.9652 13.244 10.2256 13.187C9.38416 13.121 8.5662 13.2116 7.79659 13.5676C6.53046 14.1527 5.78306 15.187 5.34926 16.4582C4.94812 17.6349 4.93113 18.844 5.20683 20.0505C5.56747 21.6336 6.42331 22.8686 7.88544 23.6544C8.74782 24.1178 9.67815 24.3806 10.6268 24.5942C11.8119 24.8608 13.0192 24.9087 14.2266 24.945C14.9361 24.9657 15.6469 24.9489 16.6726 24.9489L16.6752 24.9463Z" fill="black"/>
<path d="M7.98325 18.448C8.00285 17.5535 8.18056 16.7017 8.69276 15.9432C8.85348 15.7063 9.03641 15.4862 9.25984 15.305C10.0255 14.6849 11.0656 14.7729 11.7215 15.5134C12.3566 16.2292 12.6715 17.072 12.7551 18.0157C12.8322 18.8739 12.6976 19.6959 12.3461 20.4804C12.1593 20.8959 11.8993 21.27 11.5491 21.5665C10.752 22.2396 9.67405 22.1373 8.98806 21.3529C8.40007 20.681 8.11784 19.8927 8.01461 19.0267C8.00285 18.9309 7.98979 18.8351 7.98456 18.7393C7.97934 18.6435 7.98456 18.5464 7.98456 18.4493L7.98325 18.448Z" fill="black"/>
<path d="M19.8893 18.4364C19.9142 17.4319 20.1389 16.4908 20.7909 15.6882C21.1163 15.2882 21.5043 14.9879 22.0414 14.9167C22.6333 14.839 23.1363 15.019 23.5505 15.4306C24.1072 15.9834 24.4273 16.6617 24.5789 17.4228C24.8036 18.5504 24.6899 19.6339 24.1594 20.663C23.9856 20.9995 23.7609 21.3038 23.4708 21.5536C22.7195 22.2034 21.7291 22.1672 21.0326 21.4643C20.3623 20.7885 20.0318 19.9588 19.9246 19.0306C19.9011 18.8326 19.8854 18.6358 19.8893 18.4351V18.4364Z" fill="black"/>
</svg>
