<svg width="25" height="31" viewBox="0 0 25 31" fill="none" xmlns="http://www.w3.org/2000/svg">
<path d="M6.49621 16.4662C6.48289 16.6232 6.47024 16.6986 6.47024 16.7735C6.46891 18.3619 6.47224 19.9511 6.46625 21.5396C6.46558 21.7647 6.53152 21.9016 6.7453 22.0085C8.27508 22.77 9.19881 23.9644 9.34999 25.7099C9.58175 28.3812 7.55914 30.1473 5.66306 30.476C3.99009 30.7666 2.09735 29.9429 1.2229 28.5401C0.202602 26.9036 0.218586 24.9677 1.2895 23.4948C1.76635 22.8395 2.37906 22.3298 3.12364 21.9978C3.32344 21.909 3.41001 21.7941 3.40935 21.5716C3.40469 17.6719 3.40469 13.7722 3.40935 9.87243C3.40935 9.63128 3.30146 9.51839 3.097 9.42554C1.42669 8.66937 0.416385 7.03145 0.472994 5.1878C0.538927 3.02818 2.30447 1.17183 4.43897 0.94471C6.9431 0.678181 9.31269 2.53587 9.37396 5.27129C9.41525 7.08623 8.56412 8.46897 6.94642 9.324C6.64739 9.48165 6.56681 9.63128 6.62742 9.96394C7.08495 12.4582 8.43092 14.3914 10.3483 15.9712C11.7575 17.1328 13.3579 17.911 15.1161 18.3826C15.4198 18.4641 15.5643 18.382 15.7109 18.1021C17.0775 15.4942 20.3701 14.9398 22.454 16.6913C23.9119 17.9164 24.4573 19.7981 23.8559 21.5897C23.2665 23.3472 21.6468 24.5903 19.7627 24.619C17.9779 24.6464 16.3782 23.6772 15.6163 21.919C15.5177 21.6919 15.3972 21.5656 15.1454 21.5222C13.0349 21.1575 11.1375 20.2931 9.38795 19.0667C8.33901 18.3312 7.40263 17.4748 6.49422 16.4655L6.49621 16.4662ZM18.2423 20.1635C18.247 20.9825 18.8344 21.565 19.6542 21.5643C20.4574 21.5636 21.0628 20.9537 21.0621 20.1468C21.0621 19.3446 20.4481 18.7247 19.6535 18.7247C18.8297 18.7247 18.2376 19.3285 18.2423 20.1635ZM4.94646 3.98073C4.10931 3.97673 3.51191 4.56389 3.50725 5.39354C3.50326 6.18177 4.12529 6.803 4.92648 6.81102C5.727 6.81903 6.32372 6.2165 6.32772 5.39621C6.33172 4.55721 5.77229 3.98407 4.94646 3.98007V3.98073ZM4.93513 27.4426C5.78161 27.44 6.33371 26.8855 6.32772 26.0445C6.32173 25.2249 5.73033 24.6364 4.91982 24.6417C4.1173 24.6471 3.51524 25.2509 3.50725 26.0585C3.49926 26.8481 4.1153 27.4453 4.93513 27.4426Z" fill="black"/>
</svg>
