<svg width="37" height="32" viewBox="0 0 37 32" fill="none" xmlns="http://www.w3.org/2000/svg">
<g clip-path="url(#clip0_13_267)">
<path d="M25.5685 12.1841C28.1247 12.1841 30.6809 12.1841 33.2372 12.1841C34.947 12.1841 36.0081 13.2755 36.0088 15.034C36.0088 18.1063 35.9628 21.1792 36.0304 24.2494C36.0593 25.5478 35.6069 26.5781 34.8249 27.5057C33.6614 28.886 32.2332 29.9621 30.8123 31.0415C30.5687 31.2268 30.3021 31.2383 30.0493 31.0549C29.8135 30.8836 29.7321 30.6465 29.7893 30.3503C29.8923 29.8143 29.9954 29.277 30.0769 28.7369C30.1911 27.9806 29.8359 27.5716 29.0768 27.5716C25.3078 27.5702 21.5394 27.5695 17.7704 27.5729C17.4507 27.5729 17.1394 27.5407 16.8347 27.4406C15.7704 27.0933 15.0605 26.1154 15.0592 24.9708C15.0559 21.5748 15.0553 18.1788 15.0592 14.7828C15.0612 13.3373 16.1821 12.1901 17.6036 12.1861C20.2584 12.1787 22.9124 12.1841 25.5672 12.1834L25.5685 12.1841ZM25.5777 15.0253C25.1358 15.0273 24.9224 15.1737 24.7379 15.6298C24.3544 16.5782 23.9755 17.5286 23.598 18.479C22.9374 20.1428 22.2788 21.8079 21.6195 23.473C21.4876 23.8061 21.4298 24.1453 21.6301 24.4677C21.8119 24.7599 22.0858 24.9298 22.4279 24.903C22.7923 24.8741 23.0595 24.6712 23.2 24.3173C23.4377 23.7175 23.6813 23.1203 23.9026 22.5145C23.9913 22.2713 24.1147 22.1625 24.38 22.1679C25.1653 22.1833 25.9513 22.1827 26.7373 22.1679C26.9894 22.1632 27.1089 22.2687 27.1936 22.4964C27.4103 23.08 27.646 23.657 27.8713 24.2373C27.9533 24.4496 28.0597 24.6397 28.2567 24.7626C28.5784 24.9634 28.9567 24.9419 29.2659 24.7048C29.5581 24.4805 29.6934 24.0882 29.5568 23.7188C29.26 22.9155 28.9409 22.1209 28.6297 21.3229C27.8982 19.4476 27.168 17.5716 26.4339 15.6976C26.2277 15.171 26.0334 15.0239 25.577 15.0259L25.5777 15.0253Z" fill="black"/>
<path d="M0.0528052 7.85918C0.0528052 6.21759 0.0508353 4.57534 0.0528052 2.93375C0.0560883 1.32172 1.1579 0.189272 2.73183 0.188601C7.94147 0.185914 13.1511 0.186586 18.3614 0.188601C19.9058 0.188601 21.001 1.31366 21.0024 2.89345C21.0043 5.25037 21.003 7.60662 21.0024 9.96355C21.0024 10.4022 20.9984 10.4069 20.5585 10.4055C19.5755 10.4022 18.5926 10.3981 17.6096 10.3894C16.5853 10.38 15.6791 10.7111 14.8905 11.3747C14.7579 11.4862 14.6508 11.5279 14.4827 11.4386C14.1617 11.2686 13.7966 11.3472 13.4532 11.2928C13.0953 11.2364 12.7473 11.1544 12.4032 11.0429C12.2075 10.9798 12.1622 10.8884 12.2896 10.7064C13.0283 9.65189 13.4912 8.48451 13.639 7.19153C13.662 6.98734 13.7716 6.90405 13.9693 6.90741C14.1321 6.91009 14.2969 6.91278 14.4539 6.84897C14.8222 6.69851 15.0527 6.28006 14.9883 5.87235C14.9233 5.46128 14.5668 5.1288 14.1426 5.12208C13.3783 5.10999 12.6133 5.10798 11.849 5.12208C11.5595 5.12746 11.4281 5.04484 11.4492 4.72579C11.4721 4.38122 11.461 4.03329 11.4518 3.68738C11.4354 3.10234 11.0578 2.70135 10.545 2.71008C10.0453 2.71814 9.68284 3.11309 9.66708 3.68267C9.65657 4.05075 9.6546 4.42018 9.66708 4.78826C9.67561 5.03409 9.58172 5.12477 9.3427 5.12208C8.56723 5.11402 7.79176 5.11201 7.01629 5.1241C6.55797 5.13149 6.23754 5.4277 6.14823 5.88511C6.07798 6.2458 6.28744 6.65418 6.62757 6.82815C6.81208 6.92218 7.00972 6.91211 7.2054 6.91211C8.60335 6.91412 10.0013 6.91211 11.3992 6.91345C11.8766 6.91345 11.9035 6.94368 11.8077 7.40176C11.6389 8.20845 11.325 8.95065 10.8569 9.62636C10.7013 9.85137 10.6015 9.83727 10.4445 9.63174C10.0446 9.10648 9.74324 8.53085 9.50555 7.91291C9.36569 7.54953 9.08596 7.34333 8.6979 7.33527C8.33807 7.32788 8.0682 7.50318 7.90339 7.82828C7.76944 8.09292 7.79505 8.36898 7.89354 8.64034C8.15093 9.34694 8.51011 9.99511 8.95267 10.5969C9.17986 10.9059 9.16739 10.9408 8.79639 11.0544C8.27044 11.2149 7.73464 11.2935 7.18307 11.3002C6.63282 11.3062 6.26774 11.5816 6.18895 11.9954C6.0701 12.6214 6.44831 13.107 7.07736 13.1204C8.19821 13.1446 9.27245 12.929 10.2751 12.4071C10.5318 12.2734 10.7387 12.256 11.0026 12.4044C11.7177 12.8074 12.4952 13.0311 13.3067 13.1171C13.5182 13.1392 13.5753 13.2145 13.5057 13.4153C13.3067 13.9916 13.243 14.5901 13.2719 15.1959C13.2864 15.4968 13.1675 15.5781 12.8891 15.5768C10.9015 15.568 8.91327 15.57 6.92568 15.5741C6.22506 15.5754 5.87508 16.0066 5.97751 16.7267C6.01231 16.9692 6.05565 17.211 6.09899 17.4521C6.1548 17.7591 6.21587 18.0653 6.27299 18.3723C6.32815 18.6692 6.22046 18.8996 5.98277 19.0648C5.74901 19.2273 5.50212 19.2193 5.27821 19.0514C3.75222 17.9082 2.24264 16.7441 1.03183 15.2369C0.369297 14.4141 -0.0135137 13.5026 0.0363896 12.3823C0.103365 10.8777 0.0528052 9.36777 0.0528052 7.85985V7.85918Z" fill="black"/>
<path d="M25.5212 20.3759C24.995 20.3786 24.8315 20.1267 25.0307 19.6203C25.1607 19.2898 25.2927 18.96 25.428 18.6316C25.4509 18.5751 25.4726 18.4878 25.5534 18.5086C25.5934 18.5194 25.6309 18.5832 25.6499 18.6309C25.8489 19.1252 26.0419 19.6223 26.2409 20.1166C26.3118 20.2926 26.2494 20.3705 26.0767 20.3746C25.8915 20.3786 25.7064 20.3752 25.5212 20.3752V20.3759Z" fill="black"/>
</g>
<defs>
<clipPath id="clip0_13_267">
<rect width="36" height="31" fill="white" transform="translate(0.0317383 0.186523)"/>
</clipPath>
</defs>
</svg>
