<svg width="38" height="38" viewBox="0 0 38 38" fill="none" xmlns="http://www.w3.org/2000/svg">
<path fill-rule="evenodd" clip-rule="evenodd" d="M19.2394 37.1462C29.4062 37.1462 37.6481 28.9044 37.6481 18.7375C37.6481 8.57074 29.4062 0.328918 19.2394 0.328918C9.07263 0.328918 0.830811 8.57074 0.830811 18.7375C0.830811 28.9044 9.07263 37.1462 19.2394 37.1462ZM29.6036 27.8893C29.8784 28.551 29.9731 29.1846 29.897 29.7568C32.7782 26.9697 34.5694 23.0628 34.5694 18.7376C34.5694 10.2712 27.7061 3.40783 19.2397 3.40783C10.7733 3.40783 3.90996 10.2712 3.90996 18.7376C3.90996 23.0696 5.70686 26.9819 8.59596 29.7699C8.47887 29.0235 8.63077 28.2456 8.97053 27.6743C9.74773 26.3665 10.9931 25.6016 12.2661 24.8825C13.2748 24.3128 14.342 23.8682 15.417 23.4409C15.9592 23.2251 16.2063 22.7451 16.3164 22.2505C16.4757 21.5391 16.5307 20.8088 15.9747 20.1778C14.8696 18.9226 14.1277 17.4593 13.6914 15.8519C13.1887 14.0011 13.1982 12.1572 14.0812 10.4116C14.7087 9.17027 15.6933 8.29579 17.0101 7.7856C18.3003 7.28577 19.6154 7.2003 20.9159 7.58705C22.898 8.17666 24.2527 9.47414 24.8122 11.5071C25.3596 13.497 25.0893 15.4402 24.2854 17.2979C23.8387 18.3312 23.281 19.3205 22.521 20.1795C21.7146 21.0902 21.9625 22.1987 22.5624 23.0697C22.7729 23.3752 23.1011 23.4891 23.4204 23.6C23.5044 23.6292 23.5878 23.6582 23.6683 23.6904C25.0118 24.2299 26.3106 24.8558 27.5027 25.6776C28.3504 26.262 29.1913 26.8974 29.6036 27.8893Z" fill="black"/>
</svg>
