<svg width="29" height="35" viewBox="0 0 29 35" fill="none" xmlns="http://www.w3.org/2000/svg">
<path d="M28.5405 17.5012C28.5405 20.2517 28.5364 23.0015 28.5445 25.752C28.5459 26.2087 28.3844 26.5749 28.0342 26.8451C25.1454 29.0729 22.2667 31.3129 19.3019 33.4406C17.0591 35.0496 13.7305 34.5841 11.9444 33.2663C10.9367 32.5231 10.4352 31.5395 10.4373 30.2756C10.4461 25.0918 10.4529 19.9079 10.4345 14.7248C10.4284 12.9756 11.162 11.6401 12.5661 10.6763C15.0518 8.96995 17.5592 7.29556 20.0633 5.61572C20.9197 5.04126 22.0469 5.60483 22.0985 6.63942C22.1324 7.32823 22.1222 8.02045 22.0985 8.70994C22.0788 9.27624 21.6798 9.75338 21.1532 9.91129C20.6245 10.0706 20.0457 9.88542 19.7199 9.40965C19.572 9.19388 19.479 9.19525 19.2727 9.33682C17.6264 10.4701 15.9706 11.5904 14.3169 12.7128C14.0827 12.8714 13.8615 13.045 13.6478 13.2308C13.1395 13.6725 13.0418 14.2477 13.1239 14.8678C13.1829 15.317 13.5806 15.5933 14.1499 15.6328C14.912 15.6852 15.6225 15.4797 16.3215 15.2054C17.3876 14.7874 18.2854 14.0973 19.1838 13.4146C21.504 11.6517 23.8119 9.87181 26.1273 8.10281C26.6112 7.73322 27.1344 7.54672 27.7329 7.8394C28.322 8.12663 28.5418 8.61874 28.5412 9.2497C28.5378 11.649 28.5398 14.0483 28.5398 16.4482C28.5398 16.7988 28.5398 17.15 28.5398 17.5005L28.5405 17.5012ZM19.5442 22.2882C19.6086 22.2643 19.6433 22.2596 19.667 22.2412C21.6723 20.6852 23.6762 19.1279 25.6829 17.574C25.822 17.4665 25.8776 17.3419 25.8756 17.169C25.8702 16.5476 25.8756 15.9255 25.8722 15.3041C25.8722 15.2183 25.9102 15.1039 25.8159 15.0556C25.7181 15.0059 25.655 15.1128 25.5885 15.1638C23.6443 16.6694 21.7015 18.1777 19.76 19.6867C19.6629 19.7623 19.5462 19.8365 19.5455 19.976C19.5415 20.7397 19.5435 21.5034 19.5435 22.2882H19.5442Z" fill="black"/>
<path d="M0.188252 18.7127C0.188252 15.9963 0.193002 13.2791 0.18418 10.5627C0.182144 9.97525 0.139392 9.3899 0.249326 8.80454C0.501768 7.46026 1.18988 6.45427 2.37201 5.7321C4.82925 4.23195 7.25799 2.6828 9.69079 1.14182C10.1651 0.841651 10.6408 0.782434 11.1294 1.03359C11.6316 1.29156 11.8243 1.74623 11.8189 2.30028C11.8128 2.93396 11.8216 3.56832 11.8162 4.20201C11.8108 4.85066 11.4355 5.34617 10.837 5.50885C10.2547 5.66744 9.64329 5.41968 9.35149 4.84862C9.20084 4.5539 9.06987 4.68935 8.91107 4.79008C7.33535 5.78451 5.76098 6.78098 4.18525 7.7754C3.97488 7.90813 3.75366 8.02248 3.54668 8.15997C2.89047 8.59626 2.63124 9.50901 2.94476 10.2359C3.08658 10.5647 3.36074 10.6695 3.68308 10.6716C4.5802 10.6777 5.38706 10.353 6.14982 9.92557C8.44758 8.63778 10.6096 7.13423 12.8042 5.68309C13.9158 4.94799 15.0145 4.19384 16.1158 3.44308C16.6614 3.07077 17.1175 3.0347 17.5911 3.34235C18.1035 3.67587 18.3519 4.27143 18.2189 4.87585C18.1103 5.36863 17.8653 5.76545 17.433 6.05541C15.4461 7.39016 13.4991 8.78548 11.4708 10.0597C10.0104 10.9772 9.41596 12.3766 9.30806 14.0353C9.1703 16.1494 9.26123 18.2662 9.24902 20.3823C9.23273 23.1444 9.24563 25.9065 9.24495 28.6685C9.24495 29.5132 8.83982 30.0618 8.03295 30.2871C6.18986 30.8017 4.37458 30.7064 2.5912 30.0115C2.11414 29.8256 1.67644 29.5677 1.28624 29.2362C0.576415 28.6345 0.184859 27.881 0.186894 26.9302C0.192323 24.1906 0.18893 21.4516 0.188252 18.712V18.7127Z" fill="black"/>
</svg>
