<svg width="28" height="28" viewBox="0 0 28 28" fill="none" xmlns="http://www.w3.org/2000/svg">
<path fill-rule="evenodd" clip-rule="evenodd" d="M16.1926 18.7254C14.6047 19.845 12.6676 20.5026 10.577 20.5026C5.18866 20.5026 0.820618 16.1345 0.820618 10.7462C0.820618 5.35793 5.18866 0.989868 10.577 0.989868C15.9653 0.989868 20.3333 5.35793 20.3333 10.7462C20.3333 12.8703 19.6545 14.8358 18.5021 16.4377L26.5779 24.6287C27.2081 25.2679 27.2008 26.297 26.5616 26.9273C25.9224 27.5575 24.8932 27.5502 24.2631 26.911L16.1926 18.7254ZM17.3258 10.7462C17.3258 14.4735 14.3043 17.495 10.577 17.495C6.84973 17.495 3.82819 14.4735 3.82819 10.7462C3.82819 7.01897 6.84973 3.99744 10.577 3.99744C14.3043 3.99744 17.3258 7.01897 17.3258 10.7462Z" fill="black"/>
</svg>
