<svg width="29" height="32" viewBox="0 0 29 32" fill="none" xmlns="http://www.w3.org/2000/svg">
<path d="M6.90054 7.18587C6.26015 7.17905 5.77395 6.68213 5.76215 5.99783C5.75437 5.52762 5.75607 5.05704 5.75776 4.58661C5.75848 4.38767 5.7592 4.18853 5.7592 3.98968C5.7592 3.7853 5.75844 3.58086 5.75768 3.37638C5.75596 2.91146 5.75424 2.44623 5.76141 1.98153C5.77248 1.27143 6.25793 0.779065 6.9212 0.782859C7.58815 0.786652 8.08394 1.27522 8.08984 1.98077C8.10312 3.31979 8.10386 4.65881 8.0891 5.99783C8.08172 6.68213 7.54831 7.1927 6.90054 7.18587Z" fill="black"/>
<path fill-rule="evenodd" clip-rule="evenodd" d="M24.2951 4.09816C26.4723 4.77943 28.049 6.9249 28.0534 9.27141C28.063 14.9605 28.0667 20.6489 28.0519 26.338C28.0438 29.3074 25.6349 31.77 22.748 31.7753C19.9917 31.7806 17.2346 31.7829 14.4783 31.7829C11.7219 31.7829 8.96484 31.7806 6.20849 31.7753C3.32156 31.77 0.912716 29.3074 0.904601 26.338C0.889845 20.6489 0.893534 14.9605 0.903125 9.27141C0.907552 6.9249 2.48419 4.77943 4.66137 4.09816C5.06567 3.97223 5.11289 4.00333 5.11658 4.43197C5.11811 4.6468 5.11748 4.86175 5.11686 5.07673C5.11597 5.38026 5.11509 5.68388 5.12027 5.98721C5.13945 7.03718 5.93478 7.84818 6.92635 7.83983C7.92531 7.83149 8.71104 7.02201 8.72727 5.97431C8.73686 5.38028 8.73686 4.7855 8.72727 4.19148C8.72284 3.92367 8.80031 3.81519 9.08583 3.81595C10.8838 3.82126 12.681 3.82277 14.4783 3.82201C16.2755 3.82277 18.0727 3.82126 19.8707 3.81595C20.1562 3.81519 20.2337 3.92367 20.2292 4.19148C20.2197 4.7855 20.2197 5.38028 20.2292 5.97431C20.2455 7.02201 21.0312 7.83149 22.0302 7.83983C23.0217 7.84818 23.8171 7.03718 23.8362 5.98721C23.8413 5.69289 23.8404 5.39833 23.8394 5.10381C23.8387 4.8799 23.838 4.65572 23.8399 4.43197C23.8436 4.00333 23.8908 3.97223 24.2951 4.09816ZM22.7266 28.9311C24.1262 28.9288 25.2852 27.7309 25.2882 26.2849C25.2924 24.1071 25.2926 21.9293 25.2929 19.7515C25.2931 17.3015 25.2934 14.8516 25.2993 12.4016C25.3 12.0367 25.1665 11.9578 24.8441 11.9593C22.1166 11.9659 19.3891 11.9654 16.6613 11.9649H12.2954C9.56754 11.9654 6.83992 11.9659 4.11246 11.9593C3.79005 11.9578 3.65652 12.0367 3.65725 12.4016C3.66311 14.8516 3.66339 17.3016 3.66366 19.7516C3.66391 21.9294 3.66415 24.1071 3.66832 26.2849C3.67127 27.7309 4.83032 28.9288 6.22989 28.9311C8.97885 28.9356 11.7293 28.9372 14.4783 28.9372C17.2272 28.9372 19.9777 28.9356 22.7266 28.9311Z" fill="black"/>
<path d="M23.1944 5.99859C23.1833 6.68213 22.6971 7.17981 22.056 7.18663C21.4082 7.19422 20.8748 6.68289 20.8674 5.99859C20.8534 4.65957 20.8534 3.32055 20.8667 1.98153C20.8733 1.27522 21.3691 0.786652 22.0361 0.782859C22.6993 0.779065 23.1848 1.27143 23.1951 1.98229C23.2023 2.44698 23.2006 2.91204 23.1989 3.37696C23.1981 3.5815 23.1973 3.786 23.1973 3.99044C23.1971 4.20786 23.1979 4.42536 23.1986 4.64289C23.2003 5.09482 23.2019 5.54688 23.1944 5.99859Z" fill="black"/>
<path d="M11.7061 23.422C12.3948 23.8582 13.0996 24.0763 13.8205 24.0763C14.973 24.0763 15.8316 23.8214 16.3964 23.3118C16.9658 22.8021 17.2504 22.0927 17.2504 21.1836C17.2504 20.7474 17.1793 20.3685 17.0369 20.0471C16.8992 19.7211 16.7086 19.4663 16.4653 19.2826C16.2219 19.0944 15.9533 18.9566 15.6594 18.8694C15.3702 18.7775 15.0533 18.7316 14.709 18.7316C14.5024 18.7316 14.2774 18.7592 14.034 18.8143C13.7907 18.8648 13.607 18.9291 13.483 19.0071L13.7723 17.5677H16.6443L17.1196 15.8665H12.2777L11.8231 20.4673C12.4522 20.2147 13.0216 20.0885 13.5312 20.0885C14.0317 20.0885 14.3967 20.1941 14.6263 20.4053C14.8605 20.6165 14.9776 20.9035 14.9776 21.2662C14.9776 21.7483 14.8284 22.0927 14.5299 22.2993C14.236 22.5059 13.7815 22.6093 13.1662 22.6093C12.9596 22.6093 12.7001 22.5656 12.3879 22.4784C12.0757 22.3866 11.8484 22.2833 11.7061 22.1685V23.422Z" fill="black"/>
</svg>
