<svg width="40" height="37" viewBox="0 0 40 37" fill="none" xmlns="http://www.w3.org/2000/svg">
<path d="M28.3094 6.14648C28.3094 6.47201 28.5048 6.63477 28.8954 6.63477H32.9188V10.6582C32.9188 11.0488 33.0816 11.2441 33.4071 11.2441H34.2469C34.5725 11.2441 34.7352 11.0488 34.7352 10.6582V6.63477H38.7587C39.1493 6.63477 39.3446 6.47201 39.3446 6.14648V5.30664C39.3446 4.98112 39.1493 4.81836 38.7587 4.81836H34.7352V0.794922C34.7352 0.404297 34.5725 0.208984 34.2469 0.208984H33.4071C33.0816 0.208984 32.9188 0.404297 32.9188 0.794922V4.81836H28.8954C28.5048 4.81836 28.3094 4.98112 28.3094 5.30664V6.14648Z" fill="black"/>
<path d="M5.41462 11.0216C5.42635 11.7059 5.90955 12.2029 6.546 12.2097C7.18979 12.2165 7.71992 11.7059 7.72725 11.0216C7.74191 9.68261 7.74118 8.34359 7.72798 7.00457C7.72212 6.29903 7.22938 5.81046 6.56653 5.80666C5.90735 5.80287 5.42488 6.29523 5.41389 7.00533C5.40676 7.47003 5.40847 7.9351 5.41018 8.40002C5.41093 8.60447 5.41169 8.80913 5.41169 9.01348C5.41169 9.2123 5.41097 9.41119 5.41026 9.61011C5.40858 10.0805 5.40689 10.5514 5.41462 11.0216Z" fill="black"/>
<path d="M13.2233 23.667V28.867H15.4566V21.0604H13.9833C13.8988 21.3004 13.79 21.5026 13.6566 21.667C13.5233 21.8315 13.3633 21.9604 13.1766 22.0537C12.99 22.147 12.8122 22.2159 12.6433 22.2604C12.4744 22.3048 12.2655 22.3448 12.0166 22.3804V23.8004L13.2233 23.667Z" fill="black"/>
<path fill-rule="evenodd" clip-rule="evenodd" d="M27.5686 14.2952C27.5642 11.9487 25.9973 9.80324 23.8335 9.12197C23.4317 8.99603 23.3848 9.02714 23.3811 9.45577C23.3792 9.6795 23.3799 9.90337 23.3806 10.1273C23.3815 10.4219 23.3825 10.7166 23.3775 11.011C23.3584 12.061 22.568 12.872 21.5825 12.8636C20.5897 12.8553 19.8088 12.0458 19.7927 10.9981C19.7831 10.4041 19.7831 9.80931 19.7927 9.21528C19.7971 8.94748 19.7201 8.83899 19.4363 8.83975C17.6494 8.84506 15.8632 8.84658 14.0771 8.84582C12.2909 8.84658 10.5047 8.84506 8.71784 8.83975C8.43408 8.83899 8.35709 8.94748 8.36149 9.21528C8.37102 9.80931 8.37102 10.4041 8.36149 10.9981C8.34536 12.0458 7.56446 12.8553 6.57166 12.8636C5.58619 12.872 4.79576 12.061 4.77669 11.011C4.77154 10.7077 4.77242 10.4041 4.7733 10.1006C4.77392 9.8856 4.77455 9.67059 4.77303 9.45577C4.76936 9.02714 4.72243 8.99603 4.32062 9.12197C2.15684 9.80324 0.589907 11.9487 0.585508 14.2952C0.575976 19.9843 0.572309 25.6727 0.586974 31.3618C0.59504 34.3312 2.98906 36.7938 5.85822 36.7991C8.59759 36.8044 11.3377 36.8067 14.0771 36.8067C16.8165 36.8067 19.5566 36.8044 22.2959 36.7991C25.1651 36.7938 27.5591 34.3312 27.5672 31.3618C27.5818 25.6727 27.5782 19.9843 27.5686 14.2952ZM24.8205 31.3087C24.8175 32.7547 23.6656 33.9526 22.2747 33.9549C19.5426 33.9594 16.8091 33.961 14.0771 33.961C11.345 33.961 8.61152 33.9594 5.87948 33.9549C4.48853 33.9526 3.33661 32.7547 3.33368 31.3087C3.32954 29.131 3.3293 26.9532 3.32905 24.7754C3.32878 22.3254 3.32851 19.8754 3.32268 17.4254C3.32195 17.0605 3.45467 16.9816 3.77509 16.9831C6.48576 16.9897 9.19643 16.9892 11.9075 16.9887H16.2465C18.9576 16.9892 21.6684 16.9897 24.3791 16.9831C24.6995 16.9816 24.8322 17.0605 24.8315 17.4254C24.8256 19.8754 24.8254 22.3253 24.8251 24.7753C24.8249 26.9531 24.8246 29.1309 24.8205 31.3087Z" fill="black"/>
<path d="M21.6082 12.2104C22.2453 12.2036 22.7286 11.7059 22.7396 11.0224C22.747 10.5707 22.7454 10.1186 22.7438 9.66669C22.743 9.44918 22.7422 9.23164 22.7425 9.01424C22.7425 8.80983 22.7432 8.60536 22.744 8.40085C22.7457 7.936 22.7474 7.47071 22.7403 7.00609C22.73 6.29523 22.2475 5.80287 21.5884 5.80666C20.9255 5.81046 20.4328 6.29903 20.4262 7.00533C20.413 8.34435 20.413 9.68337 20.4269 11.0224C20.4343 11.7067 20.9644 12.218 21.6082 12.2104Z" fill="black"/>
</svg>
